<mxfile host="app.diagrams.net" modified="2022-08-18T21:04:49.134Z" agent="5.0 (Windows NT 10.0; Win64; x64) AppleWebKit/537.36 (KHTML, like Gecko) Chrome/104.0.0.0 Safari/537.36" etag="glZNwYiYorxE4HG8KMuH" version="20.2.5" type="github">
  <diagram id="Tv6WiDoShTGpSTUKxkJ7" name="Página-1">
    <mxGraphModel dx="2162" dy="742" grid="1" gridSize="10" guides="1" tooltips="1" connect="1" arrows="1" fold="1" page="1" pageScale="1" pageWidth="827" pageHeight="1169" math="0" shadow="0">
      <root>
        <mxCell id="0" />
        <mxCell id="1" parent="0" />
        <mxCell id="l0C9Wd7gATEz6wUp-5n3-8" value="" style="edgeStyle=orthogonalEdgeStyle;rounded=0;orthogonalLoop=1;jettySize=auto;html=1;fontFamily=Comic Sans MS;fontSize=20;" edge="1" parent="1" source="l0C9Wd7gATEz6wUp-5n3-1" target="l0C9Wd7gATEz6wUp-5n3-7">
          <mxGeometry relative="1" as="geometry" />
        </mxCell>
        <mxCell id="l0C9Wd7gATEz6wUp-5n3-1" value="inicio" style="rounded=0;whiteSpace=wrap;html=1;fontSize=20;fontStyle=1;fontFamily=Comic Sans MS;" vertex="1" parent="1">
          <mxGeometry x="354" y="120" width="156" height="60" as="geometry" />
        </mxCell>
        <mxCell id="l0C9Wd7gATEz6wUp-5n3-10" value="" style="edgeStyle=orthogonalEdgeStyle;rounded=0;orthogonalLoop=1;jettySize=auto;html=1;fontFamily=Comic Sans MS;fontSize=20;" edge="1" parent="1" source="l0C9Wd7gATEz6wUp-5n3-7" target="l0C9Wd7gATEz6wUp-5n3-9">
          <mxGeometry relative="1" as="geometry" />
        </mxCell>
        <mxCell id="l0C9Wd7gATEz6wUp-5n3-7" value="N, X" style="rounded=0;whiteSpace=wrap;html=1;fontSize=20;fontStyle=1;fontFamily=Comic Sans MS;" vertex="1" parent="1">
          <mxGeometry x="354" y="240" width="156" height="60" as="geometry" />
        </mxCell>
        <mxCell id="l0C9Wd7gATEz6wUp-5n3-11" style="edgeStyle=orthogonalEdgeStyle;rounded=0;orthogonalLoop=1;jettySize=auto;html=1;fontFamily=Comic Sans MS;fontSize=20;" edge="1" parent="1" source="l0C9Wd7gATEz6wUp-5n3-9">
          <mxGeometry relative="1" as="geometry">
            <mxPoint x="432" y="470" as="targetPoint" />
          </mxGeometry>
        </mxCell>
        <mxCell id="l0C9Wd7gATEz6wUp-5n3-9" value="i = 0" style="rounded=0;whiteSpace=wrap;html=1;fontSize=20;fontStyle=1;fontFamily=Comic Sans MS;" vertex="1" parent="1">
          <mxGeometry x="354" y="360" width="156" height="60" as="geometry" />
        </mxCell>
        <mxCell id="l0C9Wd7gATEz6wUp-5n3-14" value="" style="edgeStyle=orthogonalEdgeStyle;rounded=0;orthogonalLoop=1;jettySize=auto;html=1;fontFamily=Comic Sans MS;fontSize=20;" edge="1" parent="1" source="l0C9Wd7gATEz6wUp-5n3-12" target="l0C9Wd7gATEz6wUp-5n3-13">
          <mxGeometry relative="1" as="geometry" />
        </mxCell>
        <mxCell id="l0C9Wd7gATEz6wUp-5n3-30" style="edgeStyle=orthogonalEdgeStyle;rounded=0;orthogonalLoop=1;jettySize=auto;html=1;fontFamily=Comic Sans MS;fontSize=20;entryX=1;entryY=0.5;entryDx=0;entryDy=0;" edge="1" parent="1" source="l0C9Wd7gATEz6wUp-5n3-12" target="l0C9Wd7gATEz6wUp-5n3-31">
          <mxGeometry relative="1" as="geometry">
            <mxPoint x="440" y="920" as="targetPoint" />
            <Array as="points">
              <mxPoint x="600" y="500" />
              <mxPoint x="600" y="920" />
            </Array>
          </mxGeometry>
        </mxCell>
        <mxCell id="l0C9Wd7gATEz6wUp-5n3-12" value="i &amp;lt; N" style="rounded=0;whiteSpace=wrap;html=1;fontFamily=Comic Sans MS;fontSize=20;fontStyle=1" vertex="1" parent="1">
          <mxGeometry x="372" y="470" width="120" height="60" as="geometry" />
        </mxCell>
        <mxCell id="l0C9Wd7gATEz6wUp-5n3-16" value="" style="edgeStyle=orthogonalEdgeStyle;rounded=0;orthogonalLoop=1;jettySize=auto;html=1;fontFamily=Comic Sans MS;fontSize=20;" edge="1" parent="1" source="l0C9Wd7gATEz6wUp-5n3-13" target="l0C9Wd7gATEz6wUp-5n3-15">
          <mxGeometry relative="1" as="geometry" />
        </mxCell>
        <mxCell id="l0C9Wd7gATEz6wUp-5n3-13" value="P" style="ellipse;whiteSpace=wrap;html=1;fontSize=20;fontFamily=Comic Sans MS;rounded=0;fontStyle=1" vertex="1" parent="1">
          <mxGeometry x="372" y="570" width="120" height="60" as="geometry" />
        </mxCell>
        <mxCell id="l0C9Wd7gATEz6wUp-5n3-26" value="" style="edgeStyle=orthogonalEdgeStyle;rounded=0;orthogonalLoop=1;jettySize=auto;html=1;fontFamily=Comic Sans MS;fontSize=20;" edge="1" parent="1" source="l0C9Wd7gATEz6wUp-5n3-15" target="l0C9Wd7gATEz6wUp-5n3-25">
          <mxGeometry relative="1" as="geometry" />
        </mxCell>
        <mxCell id="l0C9Wd7gATEz6wUp-5n3-15" value="V[i] = P" style="shape=parallelogram;perimeter=parallelogramPerimeter;whiteSpace=wrap;html=1;fixedSize=1;fontSize=20;fontFamily=Comic Sans MS;rounded=0;fontStyle=1" vertex="1" parent="1">
          <mxGeometry x="372" y="660" width="120" height="60" as="geometry" />
        </mxCell>
        <mxCell id="l0C9Wd7gATEz6wUp-5n3-17" value="&lt;span style=&quot;font-size: 20px;&quot;&gt;Ejemplos en clase&amp;nbsp;&amp;nbsp;&lt;/span&gt;&lt;br style=&quot;font-size: 20px;&quot;&gt;&lt;span style=&quot;font-size: 20px;&quot;&gt;1- ingresar un vector de orden N y un valor entero X. Contar cuantos elementos iguales&lt;/span&gt;&lt;br style=&quot;font-size: 20px;&quot;&gt;&lt;span style=&quot;font-size: 20px;&quot;&gt;a X hay en el vector.&lt;/span&gt;" style="rounded=0;whiteSpace=wrap;html=1;fontFamily=Comic Sans MS;fontSize=20;align=left;fillColor=#60a917;fontColor=#ffffff;strokeColor=#2D7600;" vertex="1" parent="1">
          <mxGeometry width="820" height="90" as="geometry" />
        </mxCell>
        <mxCell id="l0C9Wd7gATEz6wUp-5n3-23" value="&lt;span style=&quot;&quot;&gt;vector = Array&amp;nbsp;&lt;/span&gt;&lt;br style=&quot;&quot;&gt;&lt;span style=&quot;&quot;&gt;Orden = n° de posiciones del array&amp;nbsp;&lt;/span&gt;" style="rounded=0;whiteSpace=wrap;html=1;fontFamily=Comic Sans MS;fontSize=20;fillColor=#fff2cc;strokeColor=#d6b656;align=left;" vertex="1" parent="1">
          <mxGeometry y="120" width="200" height="90" as="geometry" />
        </mxCell>
        <mxCell id="l0C9Wd7gATEz6wUp-5n3-28" style="edgeStyle=orthogonalEdgeStyle;rounded=0;orthogonalLoop=1;jettySize=auto;html=1;fontFamily=Comic Sans MS;fontSize=20;" edge="1" parent="1" source="l0C9Wd7gATEz6wUp-5n3-25">
          <mxGeometry relative="1" as="geometry">
            <mxPoint x="432" y="440" as="targetPoint" />
            <Array as="points">
              <mxPoint x="200" y="820" />
            </Array>
          </mxGeometry>
        </mxCell>
        <mxCell id="l0C9Wd7gATEz6wUp-5n3-25" value="I += 1" style="shape=hexagon;perimeter=hexagonPerimeter2;whiteSpace=wrap;html=1;fixedSize=1;fontSize=20;fontFamily=Comic Sans MS;rounded=0;fontStyle=1;" vertex="1" parent="1">
          <mxGeometry x="372" y="780" width="120" height="80" as="geometry" />
        </mxCell>
        <mxCell id="l0C9Wd7gATEz6wUp-5n3-38" style="edgeStyle=orthogonalEdgeStyle;rounded=0;orthogonalLoop=1;jettySize=auto;html=1;exitX=0.5;exitY=1;exitDx=0;exitDy=0;entryX=0.5;entryY=0;entryDx=0;entryDy=0;fontFamily=Comic Sans MS;fontSize=20;" edge="1" parent="1" source="l0C9Wd7gATEz6wUp-5n3-31" target="l0C9Wd7gATEz6wUp-5n3-37">
          <mxGeometry relative="1" as="geometry" />
        </mxCell>
        <mxCell id="l0C9Wd7gATEz6wUp-5n3-31" value="&lt;b&gt;i = 0&lt;/b&gt;&lt;br&gt;&lt;b&gt;Tot&amp;nbsp;= 0&lt;/b&gt;" style="rounded=0;whiteSpace=wrap;html=1;fontFamily=Comic Sans MS;fontSize=20;" vertex="1" parent="1">
          <mxGeometry x="372" y="890" width="120" height="60" as="geometry" />
        </mxCell>
        <mxCell id="l0C9Wd7gATEz6wUp-5n3-34" value="False" style="text;html=1;align=center;verticalAlign=middle;resizable=0;points=[];autosize=1;strokeColor=none;fillColor=none;fontSize=20;fontFamily=Comic Sans MS;" vertex="1" parent="1">
          <mxGeometry x="540" y="450" width="70" height="40" as="geometry" />
        </mxCell>
        <mxCell id="l0C9Wd7gATEz6wUp-5n3-35" value="True" style="text;html=1;align=center;verticalAlign=middle;resizable=0;points=[];autosize=1;strokeColor=none;fillColor=none;fontSize=20;fontFamily=Comic Sans MS;" vertex="1" parent="1">
          <mxGeometry x="325" y="530" width="70" height="40" as="geometry" />
        </mxCell>
        <mxCell id="l0C9Wd7gATEz6wUp-5n3-39" style="edgeStyle=orthogonalEdgeStyle;rounded=0;orthogonalLoop=1;jettySize=auto;html=1;exitX=0.5;exitY=1;exitDx=0;exitDy=0;fontFamily=Comic Sans MS;fontSize=20;entryX=0.5;entryY=0;entryDx=0;entryDy=0;" edge="1" parent="1" source="l0C9Wd7gATEz6wUp-5n3-37" target="l0C9Wd7gATEz6wUp-5n3-40">
          <mxGeometry relative="1" as="geometry">
            <mxPoint x="432.6923076923076" y="1089.9999999999998" as="targetPoint" />
          </mxGeometry>
        </mxCell>
        <mxCell id="l0C9Wd7gATEz6wUp-5n3-51" style="edgeStyle=orthogonalEdgeStyle;rounded=0;orthogonalLoop=1;jettySize=auto;html=1;fontFamily=Comic Sans MS;fontSize=20;entryX=0.5;entryY=0;entryDx=0;entryDy=0;" edge="1" parent="1" source="l0C9Wd7gATEz6wUp-5n3-37" target="l0C9Wd7gATEz6wUp-5n3-52">
          <mxGeometry relative="1" as="geometry">
            <mxPoint x="730" y="1270" as="targetPoint" />
          </mxGeometry>
        </mxCell>
        <mxCell id="l0C9Wd7gATEz6wUp-5n3-37" value="&lt;b&gt;i &amp;lt; N&lt;/b&gt;" style="rounded=0;whiteSpace=wrap;html=1;fontFamily=Comic Sans MS;fontSize=20;" vertex="1" parent="1">
          <mxGeometry x="372" y="990" width="120" height="60" as="geometry" />
        </mxCell>
        <mxCell id="l0C9Wd7gATEz6wUp-5n3-41" style="edgeStyle=orthogonalEdgeStyle;rounded=0;orthogonalLoop=1;jettySize=auto;html=1;exitX=1;exitY=0.5;exitDx=0;exitDy=0;fontFamily=Comic Sans MS;fontSize=20;" edge="1" parent="1" source="l0C9Wd7gATEz6wUp-5n3-40">
          <mxGeometry relative="1" as="geometry">
            <mxPoint x="610" y="1230" as="targetPoint" />
          </mxGeometry>
        </mxCell>
        <mxCell id="l0C9Wd7gATEz6wUp-5n3-44" style="edgeStyle=orthogonalEdgeStyle;rounded=0;orthogonalLoop=1;jettySize=auto;html=1;exitX=0;exitY=0.5;exitDx=0;exitDy=0;fontFamily=Comic Sans MS;fontSize=20;" edge="1" parent="1" source="l0C9Wd7gATEz6wUp-5n3-40">
          <mxGeometry relative="1" as="geometry">
            <mxPoint x="440" y="1500" as="targetPoint" />
            <Array as="points">
              <mxPoint x="240" y="1150" />
              <mxPoint x="240" y="1380" />
              <mxPoint x="440" y="1380" />
            </Array>
          </mxGeometry>
        </mxCell>
        <mxCell id="l0C9Wd7gATEz6wUp-5n3-40" value="V[i] == X" style="ellipse;whiteSpace=wrap;html=1;fontFamily=Comic Sans MS;fontSize=20;fontStyle=1" vertex="1" parent="1">
          <mxGeometry x="372" y="1120" width="120" height="60" as="geometry" />
        </mxCell>
        <mxCell id="l0C9Wd7gATEz6wUp-5n3-46" style="edgeStyle=orthogonalEdgeStyle;rounded=0;orthogonalLoop=1;jettySize=auto;html=1;fontFamily=Comic Sans MS;fontSize=20;" edge="1" parent="1" source="l0C9Wd7gATEz6wUp-5n3-42">
          <mxGeometry relative="1" as="geometry">
            <mxPoint x="450" y="1380" as="targetPoint" />
            <Array as="points">
              <mxPoint x="610" y="1360" />
              <mxPoint x="610" y="1360" />
            </Array>
          </mxGeometry>
        </mxCell>
        <mxCell id="l0C9Wd7gATEz6wUp-5n3-42" value="Tot += 1" style="whiteSpace=wrap;html=1;fontFamily=Comic Sans MS;fontSize=20;fontStyle=1" vertex="1" parent="1">
          <mxGeometry x="550" y="1230" width="120" height="60" as="geometry" />
        </mxCell>
        <mxCell id="l0C9Wd7gATEz6wUp-5n3-43" value="True" style="text;html=1;align=center;verticalAlign=middle;resizable=0;points=[];autosize=1;strokeColor=none;fillColor=none;fontSize=20;fontFamily=Comic Sans MS;" vertex="1" parent="1">
          <mxGeometry x="620" y="1130" width="70" height="40" as="geometry" />
        </mxCell>
        <mxCell id="l0C9Wd7gATEz6wUp-5n3-48" style="edgeStyle=orthogonalEdgeStyle;rounded=0;orthogonalLoop=1;jettySize=auto;html=1;exitX=0;exitY=0.5;exitDx=0;exitDy=0;fontFamily=Comic Sans MS;fontSize=20;" edge="1" parent="1" source="l0C9Wd7gATEz6wUp-5n3-47">
          <mxGeometry relative="1" as="geometry">
            <mxPoint x="430" y="970" as="targetPoint" />
            <Array as="points">
              <mxPoint x="160" y="1535" />
            </Array>
          </mxGeometry>
        </mxCell>
        <mxCell id="l0C9Wd7gATEz6wUp-5n3-47" value="&lt;b&gt;i += 1&amp;nbsp;&lt;/b&gt;" style="rounded=0;whiteSpace=wrap;html=1;fontFamily=Comic Sans MS;fontSize=20;" vertex="1" parent="1">
          <mxGeometry x="350" y="1500" width="200" height="70" as="geometry" />
        </mxCell>
        <mxCell id="l0C9Wd7gATEz6wUp-5n3-50" value="fin" style="shape=parallelogram;perimeter=parallelogramPerimeter;whiteSpace=wrap;html=1;fixedSize=1;fontFamily=Comic Sans MS;fontSize=20;fontStyle=1" vertex="1" parent="1">
          <mxGeometry x="590" y="1420" width="120" height="60" as="geometry" />
        </mxCell>
        <mxCell id="l0C9Wd7gATEz6wUp-5n3-52" value="Se encontro X cantidad de veces" style="rounded=1;whiteSpace=wrap;html=1;fontFamily=Comic Sans MS;fontSize=20;fontStyle=1" vertex="1" parent="1">
          <mxGeometry x="670" y="1300" width="132" height="80" as="geometry" />
        </mxCell>
        <mxCell id="l0C9Wd7gATEz6wUp-5n3-53" value="False" style="text;html=1;align=center;verticalAlign=middle;resizable=0;points=[];autosize=1;strokeColor=none;fillColor=none;fontSize=20;fontFamily=Comic Sans MS;" vertex="1" parent="1">
          <mxGeometry x="225" y="1110" width="70" height="40" as="geometry" />
        </mxCell>
        <mxCell id="l0C9Wd7gATEz6wUp-5n3-55" style="edgeStyle=orthogonalEdgeStyle;rounded=0;orthogonalLoop=1;jettySize=auto;html=1;exitX=1;exitY=0.75;exitDx=0;exitDy=0;entryX=0.5;entryY=1;entryDx=0;entryDy=0;fontFamily=Comic Sans MS;fontSize=20;" edge="1" parent="1" source="l0C9Wd7gATEz6wUp-5n3-54" target="l0C9Wd7gATEz6wUp-5n3-40">
          <mxGeometry relative="1" as="geometry" />
        </mxCell>
        <mxCell id="l0C9Wd7gATEz6wUp-5n3-54" value="Si lo que hay en mi vector en la posición [i] es igual a X... Pasar a lo siguiente" style="rounded=1;whiteSpace=wrap;html=1;fontFamily=Comic Sans MS;fontSize=20;fillColor=#fff2cc;strokeColor=#d6b656;fontStyle=1" vertex="1" parent="1">
          <mxGeometry x="-50" y="1100" width="170" height="170" as="geometry" />
        </mxCell>
      </root>
    </mxGraphModel>
  </diagram>
</mxfile>
